inDegrees=no
num_controls=7
num_derivatives=13
num_iterations=144
num_multipliers=7
num_parameters=0
num_slacks=7
num_states=26
objective=0.545122
objective_accelerations=0.041976
objective_balance=0.003882
objective_effort=0.041004
objective_height=0.448814
objective_ligament=0.009447
solver_duration=1546.080644
status=Solve_Succeeded
success=true
DataType=double
version=3
OpenSimVersion=4.5
endheader
time	/jointset/ground_pelvis/pelvis_tilt/value	/jointset/ground_pelvis/pelvis_tx/value	/jointset/ground_pelvis/pelvis_ty/value	/jointset/hip_r/hip_flexion_r/value	/jointset/hip_r/hip_adduction_r/value	/jointset/hip_r/hip_rotation_r/value	/jointset/back/lumbar_extension/value	/jointset/patellofemoral_r/patellar_flexion_r/value	/jointset/knee_r/knee_flexion_r/value	/jointset/knee_r/knee_adduction_r/value	/jointset/knee_r/knee_rotation_r/value	/jointset/ankle_r/ankle_angle_r/value	/jointset/subtalar_r/subtalar_angle_r/value	/jointset/ground_pelvis/pelvis_tilt/speed	/jointset/ground_pelvis/pelvis_tx/speed	/jointset/ground_pelvis/pelvis_ty/speed	/jointset/hip_r/hip_flexion_r/speed	/jointset/hip_r/hip_adduction_r/speed	/jointset/hip_r/hip_rotation_r/speed	/jointset/back/lumbar_extension/speed	/jointset/patellofemoral_r/patellar_flexion_r/speed	/jointset/knee_r/knee_flexion_r/speed	/jointset/knee_r/knee_adduction_r/speed	/jointset/knee_r/knee_rotation_r/speed	/jointset/ankle_r/ankle_angle_r/speed	/jointset/subtalar_r/subtalar_angle_r/speed	/forceset/tau_hip_flexion_r	/forceset/tau_hip_adduction_r	/forceset/tau_hip_rotation_r	/forceset/tau_knee_flexion_r	/forceset/tau_ankle_angle_r	/forceset/tau_subtalar_angle_r	/forceset/tau_lumbar_extension	lambda_cid13_p0	lambda_cid14_p0	lambda_cid14_p1	lambda_cid14_p2	lambda_cid14_p3	lambda_cid14_p4	lambda_cid14_p5	/jointset/ground_pelvis/pelvis_tilt/accel	/jointset/ground_pelvis/pelvis_tx/accel	/jointset/ground_pelvis/pelvis_ty/accel	/jointset/hip_r/hip_flexion_r/accel	/jointset/hip_r/hip_adduction_r/accel	/jointset/hip_r/hip_rotation_r/accel	/jointset/back/lumbar_extension/accel	/jointset/patellofemoral_r/patellar_flexion_r/accel	/jointset/knee_r/knee_flexion_r/accel	/jointset/knee_r/knee_adduction_r/accel	/jointset/knee_r/knee_rotation_r/accel	/jointset/ankle_r/ankle_angle_r/accel	/jointset/subtalar_r/subtalar_angle_r/accel	gamma_cid13_p0	gamma_cid14_p0	gamma_cid14_p1	gamma_cid14_p2	gamma_cid14_p3	gamma_cid14_p4	gamma_cid14_p5
0	-0.006515201659245123	0.09626021529007786	0.9427240823766599	0.1762555222360518	-0.2321526407188292	-0.261639637316358	-0.038598046466844	0.07317863873451497	0.07317863873451017	0.1745325670935261	0.1745319106600461	0.03247278518263602	-0.003451937287282185	0	0	0	0	0	0	0	0	0	0	0	0	0	0.2384024454830546	-0.1586770876963197	-0.04441151450004206	-0.4061129522011139	0.3789096015670867	-0.1448061323629826	-0.1349824249055625	-39.07575425798284	71.19237002025503	-40.52076689929545	-4.391827419457844	-17.15519887268301	-682.5644155034674	56.68538020545305	-3.010703235993256	-1.660343727952367	-0.6896610113912095	10.40343965356909	0.2744656893086669	2.247826727309434	-5.494159936146924	8.68693748336932	8.686937483369439	-2.905955962413651	0.1627881798934205	2.076172997660178	0.7497105994915926	8.794863244504014e-08	5.433127873995922e-08	-5.684407354108482e-07	1.808453602874404e-07	2.616023029313172e-08	4.371879517186244e-08	-2.749384645612776e-07
0.01	-0.006658533992468417	0.09617888898266823	0.942690835037475	0.1767596467720469	-0.2321378999414229	-0.2615195557425905	-0.03887493574750962	0.07360026533284954	0.07360026533284778	0.1743877608256629	0.174528828868124	0.03257409639302759	-0.003414046726777054	-0.02856867100224909	-0.01613027181712355	-0.006632911716372869	0.1003181787668996	0.002885311373867089	0.02389135915656513	-0.05497434223498363	0.08394803830977006	0.08394803830976329	-0.02871709589222791	-0.0005956122080248899	0.02022933132738918	0.007505317310923009	0.2347780563772842	-0.1694407112914833	-0.04376173970049357	-0.4039866245108786	0.3756264022406162	-0.133485165884285	-0.1316026116749723	-39.08974423237994	70.60223174157612	-35.77760347180133	-5.06782955115588	-18.12608924548459	-682.8928324228871	65.84228707140352	-2.76527467851969	-1.569115226733986	-0.647614089911113	9.770003083367342	0.2860772543388689	2.441091402898912	-5.438544282500496	8.19212721163465	8.192127211633784	-2.818034018770256	-0.1675710498753699	1.991392380043872	0.73995414421605	1.175342416716886e-07	5.812828052419503e-08	-7.500157986662589e-07	1.669378059018748e-07	5.249504976188043e-08	-1.291449703495349e-07	-3.101926274602784e-07
0.02	-0.007084618164948991	0.09594031069345917	0.942591757013496	0.1782517523147355	-0.2320962033716953	-0.2611643003986432	-0.03968946303359031	0.07485005035564732	0.07485005035564984	0.1739630940756495	0.1745204239283304	0.03287671675264635	-0.003303300623698019	-0.05655036785165678	-0.03145039635989093	-0.01316613695879244	0.1975962013384795	0.005391158464259602	0.04703475403587933	-0.107527601083028	0.1656316848936924	0.1656316848936869	-0.05597209643017074	-0.001064629565042782	0.0402618298454018	0.01457110851478157	0.23115366727151	-0.1802043348866467	-0.04311196490090852	-0.4018602968206565	0.3723432029141419	-0.1221641994055884	-0.1282227984443815	-39.131072494096	70.0888943526512	-31.04046072771043	-5.720632157155388	-19.20281345063097	-681.9979921557451	74.77253284467812	-2.893308405425004	-1.4983142730811	-0.6697237166005522	9.795408414505163	0.1985728326137365	2.09823387185906	-5.009943258759082	8.2340591381998	8.234059138201541	-2.613536891556596	0.1881071500950147	2.036806435784899	0.661805378078698	1.471198508983371e-07	6.192528230843083e-08	-9.315908619216697e-07	1.530302515163092e-07	7.882986923062915e-08	-3.020087358709323e-07	-3.454467903592792e-07
0.03	-0.00778751085673317	0.09555158713146308	0.942427577321244	0.1807028379861452	-0.2320314143273252	-0.2605835497650961	-0.04101736008560985	0.07690620840562501	0.07690620840562744	0.1732734656780612	0.1745100394290623	0.03337762029496724	-0.003124372917577035	-0.08387117217327146	-0.04625645453526432	-0.01967071698739906	0.2921748483660353	0.007513868316379835	0.06899920799111099	-0.1576950328364005	0.2452279232170794	0.245227923217067	-0.08171626754003898	-0.001027586656880894	0.05977077462050071	0.02112637193668593	0.2227060710646434	-0.1844770172137384	-0.04086940600384955	-0.3910096938842321	0.3554559178250759	-0.1114266867683792	-0.1216726304807696	-39.19871141123439	65.14988463339098	-27.31943295856182	-6.225355324671647	-16.40184963743657	-680.9593271444476	80.8910324096025	-2.627899848489435	-1.466056491694576	-0.6410235705516799	9.2221908074405	0.2110880604641555	2.228174171556876	-4.966626661002345	7.766576353227983	7.766576353225856	-2.519393256487816	-0.09073172939325104	1.885753208268301	0.6390474400267018	1.645644419090273e-07	6.554001802515458e-08	-1.033458835993909e-06	1.603365572861156e-07	9.242096009159514e-08	-4.017629151178607e-07	-3.776395700233325e-07
0.04	-0.008758898272324574	0.09501594200732756	0.9421983121437938	0.1840863297199432	-0.2319470045846432	-0.2597866299891561	-0.04283622816063823	0.07974716287360008	0.07974716287360133	0.1723334883622158	0.1744995784407396	0.03406917622701845	-0.00288256045408093	-0.1102493126132778	-0.0608347087877838	-0.02618323399845297	0.3840774138159811	0.009315298126619827	0.09026858251440681	-0.2057218056848172	0.32259096849326	0.3225909684932315	-0.1060418800813418	-0.001079927371517997	0.07839230779143638	0.02714805998980604	0.2142584748577753	-0.1887496995408307	-0.0386268471067889	-0.3801590909478105	0.3385686327360083	-0.100689174131171	-0.1151224625171575	-39.29132376146089	60.28044798933056	-23.59921591828889	-6.715107092129125	-13.70287188277017	-678.82626495339	86.81126053109627	-2.704775629103355	-1.452753488510285	-0.6713111130900142	9.260192098983177	0.1343168242376795	1.959217985471791	-4.581811477767933	7.787420528758547	7.78742052875842	-2.329825177843496	0.1702304255353271	1.859324114952285	0.5550903043218487	1.817587026472236e-07	6.915099567863064e-08	-1.133683364928352e-06	1.680802622343832e-07	1.05749293661679e-07	-5.000096802148002e-07	-4.097692283835724e-07
0.05	-0.009990119657561814	0.09433596982137089	0.9419036569839975	0.1883763228890468	-0.2318461204446719	-0.2587821702327256	-0.04512416520969224	0.08335153794028108	0.08335153794028281	0.1711572749568318	0.1744898406780087	0.03494317241775164	-0.002582942275490347	-0.1358588517635984	-0.07508684360573496	-0.03276232671907699	0.4734573780288904	0.01081507262563614	0.1104944460167041	-0.2515139055555575	0.3979123367641033	0.397912336764101	-0.1289622182826802	-0.0008863995240202626	0.09629959337389138	0.03270453764977054	0.2068126757446607	-0.1764468491490171	-0.03692265873112428	-0.3728699995955118	0.3308934605327298	-0.1065368188378765	-0.109224125860086	-39.40734551454142	57.7310830964818	-26.61897423012751	-6.195124046629555	-12.46581810602562	-677.0432001324757	79.27775689148602	-2.468602651611894	-1.400489501123216	-0.6534884611393824	8.70733590219405	0.1507000385271004	2.034987610697069	-4.525154456210251	7.348702273740722	7.348702273744744	-2.237514437758499	-0.05882916795201928	1.740368172514031	0.5451103557353203	1.766920423670492e-07	6.237822043728674e-08	-1.08715593891447e-06	1.602781242630341e-07	1.088484161647381e-07	-5.656835687756391e-07	-3.955258412568609e-07
0.06	-0.01147334835302447	0.09351566708269766	0.9415427548750767	0.19354620316423	-0.2317316601045516	-0.2575793084256544	-0.04785947230035023	0.08769796814917018	0.08769796814917087	0.1697589829101366	0.1744814895672766	0.03599302894283385	-0.002229922548519816	-0.1606507746585406	-0.08890081933109646	-0.03943262382333904	0.5600548350317699	0.01203053815639222	0.1299489926425354	-0.2951958140056288	0.4710019969346867	0.4710019969347113	-0.1504576083431981	-0.0008025969688822754	0.1135643746612236	0.03782836966579781	0.1993668766315443	-0.1641439987572036	-0.0352184703554703	-0.3655809082432133	0.3232182883294503	-0.1123844635445822	-0.103325789203015	-39.54491447627127	55.24377517216289	-29.64648709942517	-5.652634535077375	-11.31465563054007	-674.2648685876753	71.54602399024171	-2.541252378027705	-1.365121669992324	-0.6895519898176207	8.703690656977193	0.07745503058562576	1.804954610178507	-4.159773193634153	7.341078908706567	7.341078908706576	-2.044835549679397	0.1482853670634455	1.730823255927756	0.468561175534405	1.706880801492591e-07	5.516823454773988e-08	-1.034449483218553e-06	1.518214244845433e-07	1.115168350439224e-07	-6.299859677981159e-07	-3.793299048464882e-07
0.07000000000000001	-0.01320104627766054	0.09255941168239541	0.9411144924247221	0.1995692430610117	-0.2316064987233158	-0.2561875302734556	-0.05102058597114854	0.09276512683550117	0.09276512683550192	0.1681529378124716	0.1744753013590549	0.03721256914105053	-0.001827775489511078	-0.1847563403361733	-0.1022742755534392	-0.04624448902129573	0.6440941327539313	0.01296781348893272	0.1482774982600621	-0.3366884856547315	0.5420573298465999	0.5420573298466193	-0.1705298808832154	-0.0004663632487225008	0.1302405742942958	0.04254469252559176	0.1916484381719408	-0.1586225588393499	-0.0333588068186326	-0.3589506293854644	0.3147508545632184	-0.1115442286461535	-0.09723479426672847	-39.7020573817759	52.73494681464559	-29.81173506074758	-5.522478107115307	-10.32992381242438	-671.8741635768972	69.52536412898414	-2.325312489384516	-1.312037486181061	-0.6808239774644321	8.185211128153448	0.09665351944848111	1.82747799888312	-4.093248975700911	6.931864844868377	6.931864844867556	-1.955340923572862	-0.0283403945350691	1.620589799844083	0.4645700197621477	1.538731410425829e-07	4.580242317055573e-08	-9.044293893377952e-07	1.472941071462827e-07	1.062901004938526e-07	-6.576606139891469e-07	-3.470282063845362e-07
